<?xml version="1.0"?>
<svg xmlns:rdf="http://www.w3.org/1999/02/22-rdf-syntax-ns#" xmlns="http://www.w3.org/2000/svg" xmlns:cc="http://creativecommons.org/ns#" xmlns:dc="http://purl.org/dc/elements/1.1/" xmlns:svg="http://www.w3.org/2000/svg" id="svg2842" viewBox="0 0 143.03 118.94" version="1.1">
  <g id="layer1" transform="translate(157.23 -158.61)">
    <g id="g2867" fill-rule="evenodd">
      <path id="2" fill="#f00" d="m-15.677 277.54 1.0129-1.3501 0.46425-1.2657v-1.3079l-0.63306-1.6454-0.84408-1.1813-63.812-110.08-1.3083-1.3079-1.4349-0.71725-1.0129-0.0844-1.3927 0.50629-1.3083 1.2235-71.282 110.46v1.6876l0.42204 1.8986 0.80188 1.3923 1.2661 1.0126 1.8148 0.63286 0.88628 0.12657h136.36z"/>
      <path id="3" fill="#fff" d="m-38.763 263.37 0.84407-1.4345 0.21102-0.886-0.0844-1.2235-0.71747-1.7298-42.668-71.682-1.3083-1.1392-0.50644-0.16876-0.75967 0.0844-0.97069 0.59067-0.92848 1.2235-45.243 70.627v1.7298l0.42203 1.7298 0.80188 1.1813 1.1395 0.67505 1.2239 0.29533 88.544 0.12658z"/>
      <path id="4" d="m-76.197 251.89-0.0422-0.75943-0.12661-0.75943-0.21102-0.71725-0.29543-0.71724-0.33763-0.63286-0.46424-0.63286-0.50645-0.59067-0.54865-0.50629-0.59085-0.46409-0.67526-0.37972-0.67526-0.29533-0.75967-0.21096-0.71747-0.16876-0.75967-0.0422h-0.75967l-0.75967 0.12657-0.75967 0.16876-0.71746 0.29534-0.67526 0.33752-0.63306 0.42191-0.59085 0.4641-0.50645 0.54848-0.46424 0.59067-0.42204 0.67505-0.29543 0.67505-0.25322 0.71724-0.16882 0.75943-0.08441 0.75944v0.75943l0.08441 0.75943 0.16882 0.71724 0.25322 0.71724 0.33763 0.67505 0.37983 0.67505 0.46424 0.59067 0.54865 0.54848 0.59085 0.4641 0.63306 0.42191 0.67526 0.33752 0.71746 0.29534 0.71746 0.16876 0.75967 0.0844 0.75967 0.0422 0.75967-0.0844 0.75967-0.12657 0.71747-0.21096 0.67526-0.33752 0.67526-0.37972 0.59085-0.4219 0.59085-0.54848 0.50645-0.54848 0.42204-0.63286 0.33763-0.67505 0.29543-0.71724 0.21102-0.71724 0.12661-0.75944 0.0422-0.75943z"/>
      <path id="5" d="m-89.998 208.31 0.37984-2.0252 0.80187-1.8142 1.1817-1.4345 1.7304-1.0548 2.279-0.63286h1.3505l1.8148 0.50629 1.5615 0.84381 1.3083 1.4345 0.80187 1.6454 0.59085 2.1517 0.0422 0.37971-2.9121 28.521-0.50645 1.1392-1.3505 1.1392-1.6037 0.63286-0.97069 0.0422-1.0551-0.16876-1.1817-0.71724-0.92848-1.1392-0.71747-1.772-2.6166-27.677z"/>
    </g>
  </g>
</svg>
