<svg width="26" height="32" xmlns="http://www.w3.org/2000/svg"><path d="m 16.8,29.4 c 0,-1.1 -1.8,-2 -4,-2 -2.2,0 -4.01,0.9 -4.01,2 0,1.1 1.81,2 4.01,2 2.2,0 4,-0.9 4,-2" style="fill:#878787"/><path d="m 24.1,17.8 c 1.6,-1.6 1.6,-3.8 0,-5.7 L 15.8,1.9 C 15,0.998 14,0.498 12.9,0.498 11.8,0.498 10.7,1.1 10,1.9 L 1.7,12.1 c -1.6,1.9 -1.6,4.1 0,5.7 L 12.9,29 24.1,17.8 z" stroke="#fff" stroke-width="1" fill="#323232" /><path d="m 12.9,15.1 c 0.6,0 1.1,-0.5 1.1,-1 l 0.4,-5.9 c 0,-0.6 -0.6,-1.04 -1.5,-1.04 -0.8,0 -1.4,0.44 -1.4,1.04 l 0.3,5.9 c 0,0.5 0.6,1 1.1,1 m 0,1.3 c -0.7,0 -1.3,0.6 -1.3,1.3 0,0.8 0.6,1.4 1.3,1.4 0.8,0 1.4,-0.6 1.4,-1.4 0,-0.7 -0.6,-1.3 -1.4,-1.3" fill="#ffffff" /></svg>