<?xml version="1.0" encoding="iso-8859-1"?>
<!-- Generator: Adobe Illustrator 16.0.0, SVG Export Plug-In . SVG Version: 6.00 Build 0)  -->
<!DOCTYPE svg PUBLIC "-//W3C//DTD SVG 1.1//EN" "http://www.w3.org/Graphics/SVG/1.1/DTD/svg11.dtd">
<svg version="1.1" id="Capa_1" xmlns="http://www.w3.org/2000/svg" xmlns:xlink="http://www.w3.org/1999/xlink" x="0px" y="0px"
	 width="46.253px" height="46.253px" viewBox="0 0 46.253 46.253" style="enable-background:new 0 0 46.253 46.253;"
	 xml:space="preserve">
<g>
	<g>
		<path d="M45.105,27.255v-2.288c0-3.202-2.606-5.808-5.812-5.808h-4.643l-3.98-6.9c-0.318-0.55-0.906-0.889-1.54-0.889H19.6H8.84
			c-0.861,0-1.597,0.615-1.75,1.46l-1.168,6.435c-2.708,0.491-4.77,2.856-4.77,5.702v2.288C0.48,27.511,0,28.154,0,28.915
			c0,0.981,0.794,1.776,1.777,1.776h2.307c0.639,2.404,2.814,4.191,5.417,4.191c2.604,0,4.781-1.787,5.419-4.191h15.031
			c0.64,2.404,2.812,4.191,5.417,4.191c2.604,0,4.78-1.787,5.42-4.191h3.688c0.983,0,1.777-0.795,1.777-1.776
			C46.256,28.154,45.775,27.511,45.105,27.255z M9.49,31.318c-1.139,0-2.06-0.922-2.06-2.062c0-1.137,0.921-2.059,2.06-2.059
			c1.137,0,2.059,0.922,2.059,2.059C11.549,30.396,10.628,31.318,9.49,31.318z M17.821,19.16H9.553l0.768-4.234h7.5V19.16
			L17.821,19.16z M21.375,19.16v-4.234h6.729l2.443,4.234H21.375z M35.372,31.318c-1.138,0-2.06-0.922-2.06-2.062
			c0-1.137,0.922-2.059,2.06-2.059c1.137,0,2.058,0.922,2.058,2.059C37.43,30.396,36.509,31.318,35.372,31.318z"/>
	</g>
</g>
<g>
</g>
<g>
</g>
<g>
</g>
<g>
</g>
<g>
</g>
<g>
</g>
<g>
</g>
<g>
</g>
<g>
</g>
<g>
</g>
<g>
</g>
<g>
</g>
<g>
</g>
<g>
</g>
<g>
</g>
</svg>
