<?xml version="1.0" encoding="UTF-8" standalone="no"?>
<svg xmlns="http://www.w3.org/2000/svg" width="26px" height="31px" baseProfile="tiny" version="1.1" xmlns:xlink="http://www.w3.org/1999/xlink" viewBox="0 0 26 31">
<path id="SHADOW_2_" fill="#868686" d="M16.995,28.979c0,1.116-1.791,2.021-4,2.021c-2.209,0-4-0.905-4-2.021
	c0-1.117,1.791-2.025,4-2.025C15.204,26.953,16.995,27.861,16.995,28.979"/>
<path fill="#D5232F" d="M1.702,17.693c-1.573-1.566-1.584-3.856-0.027-5.698l8.409-10.098c0.773-0.901,1.807-1.394,2.915-1.394
	c1.125,0,2.213,0.525,2.911,1.404l8.402,10.09c1.602,1.867,1.592,4.052-0.027,5.693l-11.29,11.286L1.702,17.693z"/>
<path fill="#FFFFFF" d="M12.998,1.007c0.971,0,1.909,0.445,2.516,1.213l8.41,10.099c1.375,1.603,1.494,3.504,0,5.017l-10.93,10.929
	L2.058,17.337c-1.392-1.385-1.39-3.375,0-5.017l8.411-10.099C11.191,1.38,12.11,1.007,12.998,1.007 M12.998,0L12.998,0
	c-1.258,0-2.427,0.555-3.295,1.563l-8.42,10.112c-1.732,2.047-1.708,4.611,0.063,6.374l10.935,10.928l0.713,0.712l0.713-0.712
	l10.93-10.93c1.799-1.82,1.818-4.324,0.055-6.383L16.288,1.576C15.514,0.597,14.278,0,12.998,0L12.998,0z"/>
<path fill="#FFFFFF" d="M9.673,18.902l-0.357-0.301l-0.902-0.758c-0.406-0.34-0.457-0.949-0.115-1.354l0.014-0.02l-0.975-0.841
	c-0.33-0.275-0.373-0.771-0.096-1.1l0.012-0.012c0.275-0.332,0.773-0.372,1.1-0.1l0.979,0.84l4.414-5.262l-0.978-0.838
	c-0.324-0.274-0.373-0.768-0.094-1.102l0.012-0.013c0.277-0.328,0.771-0.372,1.099-0.099l0.98,0.842l0.014-0.02
	c0.342-0.407,0.947-0.459,1.355-0.119l0.393,0.33l0.506,0.428l0.803,0.672c0.406,0.342,0.459,0.948,0.117,1.352l-0.135,0.158
	l1.301,2.4c0.059,0.146,0.318,0.9-0.105,1.406l-3.287,1.367l-0.043,1.479c-0.043,0.762-1.369,0.764-1.459,0.748l-2.562-0.061
	C11.335,19.094,10.095,19.113,9.673,18.902z M17.096,12.184l-4.984,5.939l2.189-0.064c0.105,0.014,0.609,0.004,0.594-0.471
	l0.09-1.515l3.244-1.331c0.07-0.081,0.037-0.362-0.012-0.507L17.096,12.184z M15.174,11.561c0.391,0.326,0.967,0.279,1.293-0.111
	c0.326-0.387,0.273-0.969-0.113-1.291c-0.391-0.326-0.969-0.275-1.293,0.111C14.735,10.661,14.786,11.237,15.174,11.561z
	 M9.923,17.818c0.387,0.326,0.969,0.279,1.293-0.115c0.326-0.389,0.273-0.965-0.111-1.289c-0.393-0.326-0.969-0.28-1.295,0.111
	C9.487,16.916,9.538,17.492,9.923,17.818z"/>
<path fill="#FFFFFF" d="M8.255,19.088l-3.09-1.094l1.094,1.094H8.255z"/>
<path fill="#FFFFFF" d="M16.014,19.088h3.941l1.596-1.543L16.014,19.088z"/>
</svg>
